 <svg width="40px" height="40px" viewBox="0 0 40 40" version="1.1">
        <g id="Symbols" stroke="none" strokeWidth="1" fill="none" fillRule="evenodd">
            <g id="Success-Modal" transform="translate(-48.000000, -61.000000)" fill="#417505">
                <g id="Transactional-Modal">
                    <g id="Passive-Modal_Label">
                        <g id="Group">
                            <path d="M68,61 C56.888,61 48,69.888 48,81 C48,92.112 56.888,101 68,101 C79.112,101 88,92.112 88,81 C88,69.888 79.112,61 68,61 Z M78.4453333,75.888 L66.224,89.2213333 C65.7786867,89.6666467 65.112,89.888 64.6667333,89.888 C64.2214667,89.888 63.5547333,89.6666467 63.1120667,89.2213333 L57.5548,83.2213333 C56.6668,82.3333333 56.8881333,81 57.7761533,80.1093333 C58.6641533,79.2213333 59.9974867,79.4426667 60.8881533,80.3306867 L64.66682,84.55202 L75.3334867,72.9973533 C76.2214867,72.1093533 77.55482,72.1093533 78.4454867,72.776 C79.3334867,73.4452667 79.3334867,74.9999333 78.4454867,75.888 L78.4453333,75.888 Z" id="Fill-1"></path>
                        </g>
                    </g>
                </g>
            </g>
        </g>
    </svg>